<svg width="132" height="132" viewBox="0 0 132 132" fill="none" xmlns="http://www.w3.org/2000/svg">
<path id="Soft Star" d="M64.2387 1.56461C64.4864 -0.521535 67.5136 -0.521535 67.7613 1.56461L69.8379 19.0654C72.5192 41.6637 90.3363 59.4808 112.934 62.1622L130.435 64.2387C132.522 64.4864 132.522 67.5136 130.435 67.7613L112.934 69.8379C90.3363 72.5192 72.5192 90.3363 69.8379 112.934L67.7613 130.435C67.5136 132.522 64.4864 132.522 64.2387 130.435L62.1622 112.934C59.4808 90.3363 41.6637 72.5192 19.0654 69.8379L1.56461 67.7613C-0.521535 67.5136 -0.521535 64.4864 1.56461 64.2387L19.0654 62.1622C41.6637 59.4808 59.4808 41.6637 62.1622 19.0654L64.2387 1.56461Z" fill="#B0B0B0"/>
</svg>
