<svg width="21" height="20" viewBox="0 0 21 20" fill="none" xmlns="http://www.w3.org/2000/svg">
<path d="M1.89425 6.25H5.60425V20H1.89425V6.25ZM13.213 6.25125C11.8542 6.25125 11.1767 6.89875 10.6042 7.3375V6.25H6.87424V20H10.6042V11.3438C10.6042 11.3438 10.468 9.62 12.5342 9.62C13.7792 9.62 14.3542 10.3287 14.3542 11.3438V20H18.2842V11.465C18.2842 6.7775 14.5105 6.25125 13.213 6.25125ZM1.85425 3.125C1.85425 3.37123 1.90275 3.61505 1.99697 3.84253C2.0912 4.07002 2.22931 4.27672 2.40342 4.45083C2.57753 4.62493 2.78423 4.76305 3.01172 4.85727C3.2392 4.9515 3.48302 5 3.72925 5C3.97548 5 4.21929 4.9515 4.44678 4.85727C4.67426 4.76305 4.88096 4.62493 5.05507 4.45083C5.22918 4.27672 5.36729 4.07002 5.46152 3.84253C5.55575 3.61505 5.60425 3.37123 5.60425 3.125C5.60425 2.87877 5.55575 2.63495 5.46152 2.40747C5.36729 2.17998 5.22918 1.97328 5.05507 1.79917C4.88096 1.62506 4.67426 1.48695 4.44678 1.39273C4.21929 1.2985 3.97548 1.25 3.72925 1.25C3.48302 1.25 3.2392 1.2985 3.01172 1.39273C2.78423 1.48695 2.57753 1.62506 2.40342 1.79917C2.22931 1.97328 2.0912 2.17998 1.99697 2.40747C1.90275 2.63495 1.85425 2.87877 1.85425 3.125Z" fill="white"/>
</svg>
