<svg width="30" height="30" viewBox="0 0 30 30" fill="none" xmlns="http://www.w3.org/2000/svg">
<g id="002-email">
<path id="Vector" d="M25 24.6875H5C4.08933 24.6842 3.2169 24.321 2.57296 23.677C1.92902 23.0331 1.56579 22.1607 1.5625 21.25V8.75C1.56579 7.83933 1.92902 6.9669 2.57296 6.32296C3.2169 5.67902 4.08933 5.31579 5 5.3125H25C25.9107 5.31579 26.7831 5.67902 27.427 6.32296C28.071 6.9669 28.4342 7.83933 28.4375 8.75V21.25C28.4342 22.1607 28.071 23.0331 27.427 23.677C26.7831 24.321 25.9107 24.6842 25 24.6875ZM5 7.1875C4.5856 7.1875 4.18817 7.35212 3.89515 7.64515C3.60212 7.93817 3.4375 8.3356 3.4375 8.75V21.25C3.4375 21.6644 3.60212 22.0618 3.89515 22.3549C4.18817 22.6479 4.5856 22.8125 5 22.8125H25C25.4144 22.8125 25.8118 22.6479 26.1049 22.3549C26.3979 22.0618 26.5625 21.6644 26.5625 21.25V8.75C26.5625 8.3356 26.3979 7.93817 26.1049 7.64515C25.8118 7.35212 25.4144 7.1875 25 7.1875H5Z" fill="#EDBC5A"/>
<path id="Vector_2" d="M15 16.6875C14.2746 16.6875 13.5625 16.4932 12.9375 16.125L2.025 9.63747C1.82112 9.5104 1.67295 9.3108 1.61033 9.07887C1.54771 8.84693 1.57528 8.59988 1.6875 8.38747C1.81231 8.18096 2.01287 8.0314 2.24639 7.97068C2.47991 7.90997 2.72792 7.9429 2.9375 8.06247L13.8625 14.5375C14.1938 14.7395 14.5744 14.8465 14.9625 14.8465C15.3506 14.8465 15.7312 14.7395 16.0625 14.5375L26.9875 8.06247C27.1971 7.9429 27.4451 7.90997 27.6786 7.97068C27.9121 8.0314 28.1127 8.18096 28.2375 8.38747C28.3497 8.59988 28.3773 8.84693 28.3147 9.07887C28.2521 9.3108 28.1039 9.5104 27.9 9.63747L17.0625 16.125C16.4376 16.4932 15.7254 16.6875 15 16.6875Z" fill="#EDBC5A"/>
</g>
</svg>
