<svg width="20" height="20" viewBox="0 0 20 20" fill="none" xmlns="http://www.w3.org/2000/svg">
<g clip-path="url(#clip0_300_75)">
<path d="M4.93782 11.3374C5.88495 9.66247 4.63273 9.29489 4.43669 8.08065C3.63414 3.11833 10.1611 -0.270754 13.5796 3.19675C15.9444 5.59827 14.3871 12.9817 10.574 12.2147C6.92153 11.4808 12.3629 5.60317 9.44802 4.45019C7.07836 3.51164 5.82001 7.31731 6.94358 9.20912C6.28439 12.4622 4.86553 15.5254 5.44018 19.6043C7.30258 18.2528 7.93115 15.6638 8.44576 12.9646C9.38186 13.5343 9.88299 14.1261 11.0764 14.218C15.4788 14.5599 17.9391 9.82298 17.3363 5.45123C16.8021 1.57695 12.9388 -0.395731 8.81946 0.0661942C5.56271 0.431323 2.31576 3.06442 2.18098 6.82966C2.09888 9.12825 2.75073 10.8534 4.93782 11.3374Z" fill="white"/>
</g>
<defs>
<clipPath id="clip0_300_75">
<rect width="19.6042" height="20" fill="white"/>
</clipPath>
</defs>
</svg>
