<svg width="35" height="35" viewBox="0 0 35 35" fill="none" xmlns="http://www.w3.org/2000/svg">
<path d="M28.4375 9.75635H6.5625C6.34494 9.75635 6.13629 9.84277 5.98245 9.99661C5.82861 10.1505 5.74219 10.3591 5.74219 10.5767C5.74219 10.7942 5.82861 11.0029 5.98245 11.1567C6.13629 11.3105 6.34494 11.397 6.5625 11.397H28.4375C28.6551 11.397 28.8637 11.3105 29.0175 11.1567C29.1714 11.0029 29.2578 10.7942 29.2578 10.5767C29.2578 10.3591 29.1714 10.1505 29.0175 9.99661C28.8637 9.84277 28.6551 9.75635 28.4375 9.75635Z" fill="white"/>
<path d="M32.9688 16.6797H16.5625C16.3449 16.6797 16.1363 16.7661 15.9825 16.92C15.8286 17.0738 15.7422 17.2824 15.7422 17.5C15.7422 17.7176 15.8286 17.9262 15.9825 18.08C16.1363 18.2339 16.3449 18.3203 16.5625 18.3203H32.9688C33.1863 18.3203 33.395 18.2339 33.5488 18.08C33.7026 17.9262 33.7891 17.7176 33.7891 17.5C33.7891 17.2824 33.7026 17.0738 33.5488 16.92C33.395 16.7661 33.1863 16.6797 32.9688 16.6797Z" fill="white"/>
<path d="M17.5 23.603H6.5625C6.34494 23.603 6.13629 23.6895 5.98245 23.8433C5.82861 23.9971 5.74219 24.2058 5.74219 24.4233C5.74219 24.6409 5.82861 24.8496 5.98245 25.0034C6.13629 25.1572 6.34494 25.2437 6.5625 25.2437H17.5C17.7176 25.2437 17.9262 25.1572 18.08 25.0034C18.2339 24.8496 18.3203 24.6409 18.3203 24.4233C18.3203 24.2058 18.2339 23.9971 18.08 23.8433C17.9262 23.6895 17.7176 23.603 17.5 23.603Z" fill="white"/>
</svg>
