<svg width="25" height="25" viewBox="0 0 25 25" fill="none" xmlns="http://www.w3.org/2000/svg">
<path fill-rule="evenodd" clip-rule="evenodd" d="M5.55556 2.77778C5.55556 4.3119 4.3119 5.55556 2.77778 5.55556C1.24365 5.55556 0 4.3119 0 2.77778C0 1.24365 1.24365 0 2.77778 0C4.3119 0 5.55556 1.24365 5.55556 2.77778ZM5.55556 12.4999C5.55556 14.034 4.3119 15.2776 2.77778 15.2776C1.24365 15.2776 0 14.034 0 12.4999C0 10.9657 1.24365 9.72209 2.77778 9.72209C4.3119 9.72209 5.55556 10.9657 5.55556 12.4999ZM2.77778 25.0001C4.3119 25.0001 5.55556 23.7565 5.55556 22.2224C5.55556 20.6882 4.3119 19.4446 2.77778 19.4446C1.24365 19.4446 0 20.6882 0 22.2224C0 23.7565 1.24365 25.0001 2.77778 25.0001ZM15.2778 2.77778C15.2778 4.3119 14.0341 5.55556 12.5 5.55556C10.9659 5.55556 9.72224 4.3119 9.72224 2.77778C9.72224 1.24365 10.9659 0 12.5 0C14.0341 0 15.2778 1.24365 15.2778 2.77778ZM12.5 15.2776C14.0341 15.2776 15.2778 14.034 15.2778 12.4999C15.2778 10.9657 14.0341 9.72209 12.5 9.72209C10.9659 9.72209 9.72224 10.9657 9.72224 12.4999C9.72224 14.034 10.9659 15.2776 12.5 15.2776ZM15.2778 22.2224C15.2778 23.7565 14.0341 25.0001 12.5 25.0001C10.9659 25.0001 9.72224 23.7565 9.72224 22.2224C9.72224 20.6882 10.9659 19.4446 12.5 19.4446C14.0341 19.4446 15.2778 20.6882 15.2778 22.2224ZM22.2222 5.55556C23.7563 5.55556 25 4.3119 25 2.77778C25 1.24365 23.7563 0 22.2222 0C20.6881 0 19.4444 1.24365 19.4444 2.77778C19.4444 4.3119 20.6881 5.55556 22.2222 5.55556ZM25 12.4999C25 14.034 23.7563 15.2776 22.2222 15.2776C20.6881 15.2776 19.4444 14.034 19.4444 12.4999C19.4444 10.9657 20.6881 9.72209 22.2222 9.72209C23.7563 9.72209 25 10.9657 25 12.4999ZM22.2222 25.0001C23.7563 25.0001 25 23.7565 25 22.2224C25 20.6882 23.7563 19.4446 22.2222 19.4446C20.6881 19.4446 19.4444 20.6882 19.4444 22.2224C19.4444 23.7565 20.6881 25.0001 22.2222 25.0001Z" fill="white"/>
</svg>
