<svg width="22" height="12" viewBox="0 0 22 12" fill="none" xmlns="http://www.w3.org/2000/svg">
<path d="M21.7479 5.39169C21.7477 5.39143 21.7475 5.39113 21.7472 5.39087L17.2568 0.922122C16.9204 0.587353 16.3762 0.588598 16.0414 0.925044C15.7066 1.26145 15.7079 1.80556 16.0443 2.14037L19.0591 5.14062H0.859375C0.384742 5.14062 0 5.52536 0 6C0 6.47463 0.384742 6.85937 0.859375 6.85937H19.0591L16.0443 9.85962C15.7079 10.1944 15.7066 10.7385 16.0414 11.075C16.3763 11.4114 16.9205 11.4126 17.2568 11.0779L21.7472 6.60912C21.7475 6.60886 21.7477 6.60856 21.748 6.60831C22.0846 6.27238 22.0835 5.7265 21.7479 5.39169Z" fill="white"/>
</svg>
