<svg width="113" height="113" viewBox="0 0 113 113" fill="none" xmlns="http://www.w3.org/2000/svg">
<g id="017-quote">
<path id="Vector" d="M23.2991 67.9449C20.98 73.797 17.3142 79.5904 12.4053 85.1666C10.8432 86.9409 10.6448 89.4738 11.9122 91.4688C12.8881 93.0033 14.5296 93.8775 16.2676 93.8775C16.7573 93.8775 17.2556 93.8085 17.747 93.6654C28.1511 90.6256 52.4198 79.8284 53.0716 45.3159C53.3233 31.9893 43.5762 20.5403 30.8841 19.2506C23.8888 18.5505 16.8901 20.8231 11.7035 25.5113C6.51013 30.2047 3.53064 36.9051 3.53064 43.8969C3.53064 55.5614 11.8104 65.762 23.2991 67.9449ZM16.4383 30.7512C19.7368 27.77 23.8888 26.182 28.2908 26.182C28.9132 26.182 29.5408 26.213 30.1702 26.2785C39.2345 27.1975 46.1919 35.5015 46.0091 45.1814C45.5591 69.0622 32.629 79.8128 21.9214 84.6218C25.3096 80.0387 27.9718 75.3246 29.865 70.5468C30.603 68.6863 30.4806 66.6069 29.5305 64.8412C28.5356 62.9894 26.7614 61.6756 24.6664 61.2358C16.5107 59.5306 10.5931 52.237 10.5931 43.8968C10.5931 38.9 12.7243 34.1084 16.4383 30.7512Z" fill="white" fill-opacity="0.2"/>
<path id="Vector_2" d="M68.307 91.4688C69.2829 93.0033 70.9244 93.8775 72.6624 93.8775C73.1521 93.8775 73.6487 93.8085 74.1418 93.6654C84.5459 90.6256 108.813 79.8284 109.465 45.3159C109.713 31.9893 99.9676 20.5403 87.2737 19.2506C80.2698 18.5384 73.2832 20.8213 68.0967 25.5113C62.9033 30.2047 59.9238 36.9051 59.9238 43.8969C59.9238 55.5614 68.2036 65.762 79.6905 67.9449C77.3697 73.8022 73.7039 79.5956 68.7967 85.1684C67.2345 86.9443 67.0379 89.4755 68.307 91.4688ZM86.2563 70.5502C86.9943 68.6898 86.8736 66.6103 85.9253 64.8447C84.9287 62.9912 83.1561 61.6773 81.0595 61.2359C72.9038 59.5306 66.9862 52.2371 66.9862 43.8969C66.9862 38.8983 69.1174 34.1084 72.8314 30.7512C76.1281 27.77 80.2801 26.182 84.6838 26.182C85.3046 26.182 85.9322 26.213 86.5633 26.2785C95.6259 27.1975 102.585 35.5015 102.402 45.1814C101.954 69.0639 89.022 79.8128 78.3145 84.6218C81.7009 80.0422 84.3597 75.3281 86.2563 70.5502Z" fill="white" fill-opacity="0.2"/>
</g>
</svg>
